<svg width="216" height="216" viewBox="0 0 216 216" fill="none" xmlns="http://www.w3.org/2000/svg">
<path d="M215.531 108.188C215.531 48.9102 167.461 0.84375 108.188 0.84375C48.9102 0.84375 0.84375 48.9102 0.84375 108.188C0.84375 167.461 48.9102 215.531 108.188 215.531C167.461 215.531 215.531 167.461 215.531 108.188Z" fill="#B861F2"/>
<path d="M172.695 48.004C172.309 46.5313 171.57 45.0626 170.535 43.8477C169.539 42.6368 168.371 41.6876 167.289 40.8204L167.027 40.6055C166.555 40.2579 166.164 39.9141 165.73 39.5235C165.297 39.1329 164.82 38.6993 164.391 38.1798C163.566 37.2735 162.789 36.2344 162.055 35.1094C161.707 34.5469 161.359 33.9844 161.059 33.4219C160.887 33.1212 160.754 32.8594 160.625 32.5587C160.453 32.211 160.324 31.9493 160.234 31.7344C160.234 31.6915 160.191 31.6915 160.191 31.6485C159.848 30.9571 159.152 30.5235 158.375 30.6094C158.16 30.6094 157.941 30.6954 157.727 30.7813C157.293 31.0001 156.949 31.3438 156.773 31.8204C156.73 31.9493 156.687 32.1251 156.687 32.254C156.645 32.3829 156.645 32.5587 156.645 32.7305L159.023 62.0196C156.602 60.5938 153.055 60.3321 149.68 61.6759C144.531 63.6641 141.59 68.4688 143.102 72.3634C144.617 76.2579 150.023 77.7696 155.172 75.7813C159.543 74.0938 162.312 70.3712 162.141 66.9532L159.805 37.879C160.539 38.8321 161.316 39.6954 162.098 40.4727C162.66 41.0352 163.223 41.5118 163.785 41.9454C164.258 42.336 164.734 42.6798 165.211 42.9844L165.516 43.1993C166.551 43.9376 167.59 44.7149 168.5 45.668C169.363 46.5743 169.973 47.6134 170.316 48.6954C170.664 49.7774 170.793 50.9884 170.707 52.3712C170.621 53.543 170.445 54.8399 170.059 56.2227C169.711 57.4337 169.32 58.6915 168.758 60.0313C168.586 60.5079 168.801 61.0274 169.234 61.1993C169.363 61.2423 169.539 61.2852 169.668 61.2852C169.973 61.2423 170.273 61.0704 170.445 60.7657C171.094 59.3829 171.613 58.086 172.047 56.7852C172.566 55.2735 172.871 53.8438 173 52.504C173.129 50.9024 173.043 49.3868 172.695 48.004Z" fill="#A7DCBD"/>
<path d="M144.66 111.906C139.684 107.063 139.988 100.442 144.227 96.0704C148.469 91.7032 155.086 91.2267 160.062 96.0704C166.207 102.086 166.508 109.27 162.27 113.637C158.027 118.008 150.805 117.879 144.66 111.906Z" fill="#878787"/>
<path d="M146.305 97.3711C146.305 97.5742 146.23 97.7461 146.09 97.8906C145.945 98.0352 145.773 98.1055 145.57 98.1055C145.367 98.1055 145.191 98.0352 145.047 97.8906C144.906 97.7461 144.832 97.5742 144.832 97.3711C144.832 97.168 144.906 96.9922 145.047 96.8516C145.191 96.707 145.367 96.6328 145.57 96.6328C145.773 96.6328 145.945 96.707 146.09 96.8516C146.23 96.9922 146.305 97.168 146.305 97.3711Z" fill="#707070"/>
<path d="M144.617 99.1016C144.617 99.3047 144.543 99.4766 144.402 99.6211C144.258 99.7656 144.086 99.8359 143.883 99.8359C143.68 99.8359 143.504 99.7656 143.359 99.6211C143.219 99.4766 143.145 99.3047 143.145 99.1016C143.145 98.8984 143.219 98.7227 143.359 98.582C143.504 98.4375 143.68 98.3633 143.883 98.3633C144.086 98.3633 144.258 98.4375 144.402 98.582C144.543 98.7227 144.617 98.8984 144.617 99.1016Z" fill="#707070"/>
<path d="M146.391 104.207C146.391 104.41 146.32 104.582 146.176 104.727C146.031 104.871 145.859 104.941 145.656 104.941C145.453 104.941 145.277 104.871 145.137 104.727C144.992 104.582 144.918 104.41 144.918 104.207C144.918 104.004 144.992 103.828 145.137 103.688C145.277 103.543 145.453 103.469 145.656 103.469C145.859 103.469 146.031 103.543 146.176 103.688C146.32 103.828 146.391 104.004 146.391 104.207Z" fill="#707070"/>
<path d="M149.766 100.746C149.766 100.949 149.695 101.121 149.551 101.266C149.406 101.41 149.234 101.48 149.031 101.48C148.828 101.48 148.652 101.41 148.508 101.266C148.367 101.121 148.293 100.949 148.293 100.746C148.293 100.543 148.367 100.367 148.508 100.223C148.652 100.082 148.828 100.008 149.031 100.008C149.234 100.008 149.406 100.082 149.551 100.223C149.695 100.367 149.766 100.543 149.766 100.746Z" fill="#707070"/>
<path d="M144.703 105.938C144.703 106.141 144.633 106.313 144.488 106.457C144.344 106.602 144.172 106.672 143.969 106.672C143.766 106.672 143.59 106.602 143.449 106.457C143.305 106.313 143.23 106.141 143.23 105.938C143.23 105.734 143.305 105.559 143.449 105.418C143.59 105.273 143.766 105.199 143.969 105.199C144.172 105.199 144.344 105.273 144.488 105.418C144.633 105.559 144.703 105.734 144.703 105.938Z" fill="#707070"/>
<path d="M148.078 102.477C148.078 102.68 148.008 102.852 147.863 102.996C147.719 103.141 147.547 103.211 147.344 103.211C147.141 103.211 146.965 103.141 146.824 102.996C146.68 102.852 146.605 102.68 146.605 102.477C146.605 102.273 146.68 102.098 146.824 101.957C146.965 101.813 147.141 101.738 147.344 101.738C147.547 101.738 147.719 101.813 147.863 101.957C148.008 102.098 148.078 102.273 148.078 102.477Z" fill="#707070"/>
<path d="M144.703 102.562C144.703 102.766 144.633 102.938 144.488 103.082C144.344 103.227 144.172 103.297 143.969 103.297C143.766 103.297 143.59 103.227 143.449 103.082C143.305 102.938 143.23 102.766 143.23 102.562C143.23 102.359 143.305 102.184 143.449 102.043C143.59 101.898 143.766 101.828 143.969 101.828C144.172 101.828 144.344 101.898 144.488 102.043C144.633 102.184 144.703 102.359 144.703 102.562Z" fill="#707070"/>
<path d="M148.078 99.1016C148.078 99.3047 148.008 99.4766 147.863 99.6211C147.719 99.7656 147.547 99.8359 147.344 99.8359C147.141 99.8359 146.965 99.7656 146.824 99.6211C146.68 99.4766 146.605 99.3047 146.605 99.1016C146.605 98.8984 146.68 98.7227 146.824 98.582C146.965 98.4375 147.141 98.3633 147.344 98.3633C147.547 98.3633 147.719 98.4375 147.863 98.582C148.008 98.7227 148.078 98.8984 148.078 99.1016Z" fill="#707070"/>
<path d="M146.391 100.832C146.391 101.035 146.32 101.207 146.176 101.352C146.031 101.496 145.859 101.566 145.656 101.566C145.453 101.566 145.277 101.496 145.137 101.352C144.992 101.207 144.918 101.035 144.918 100.832C144.918 100.629 144.992 100.453 145.137 100.312C145.277 100.168 145.453 100.094 145.656 100.094C145.859 100.094 146.031 100.168 146.176 100.312C146.32 100.453 146.391 100.629 146.391 100.832Z" fill="#707070"/>
<path d="M147.992 95.6406C147.992 95.8438 147.918 96.0156 147.777 96.1602C147.633 96.3047 147.461 96.375 147.258 96.375C147.055 96.375 146.879 96.3047 146.734 96.1602C146.594 96.0156 146.52 95.8438 146.52 95.6406C146.52 95.4375 146.594 95.2617 146.734 95.1172C146.879 94.9766 147.055 94.9023 147.258 94.9023C147.461 94.9023 147.633 94.9766 147.777 95.1172C147.918 95.2617 147.992 95.4375 147.992 95.6406Z" fill="#707070"/>
<path d="M153.141 97.2852C153.141 97.4883 153.066 97.6602 152.926 97.8047C152.781 97.9453 152.609 98.0195 152.406 98.0195C152.203 98.0195 152.027 97.9453 151.883 97.8047C151.742 97.6602 151.668 97.4883 151.668 97.2852C151.668 97.082 151.742 96.9062 151.883 96.7617C152.027 96.6211 152.203 96.5469 152.406 96.5469C152.609 96.5469 152.781 96.6211 152.926 96.7617C153.066 96.9062 153.141 97.082 153.141 97.2852Z" fill="#707070"/>
<path d="M151.453 99.0156C151.453 99.2188 151.383 99.3906 151.238 99.5352C151.094 99.6758 150.922 99.75 150.719 99.75C150.516 99.75 150.34 99.6758 150.195 99.5352C150.055 99.3906 149.98 99.2188 149.98 99.0156C149.98 98.8125 150.055 98.6367 150.195 98.4922C150.34 98.3516 150.516 98.2773 150.719 98.2773C150.922 98.2773 151.094 98.3516 151.238 98.4922C151.383 98.6367 151.453 98.8125 151.453 99.0156Z" fill="#707070"/>
<path d="M154.828 95.5508C154.828 95.7539 154.754 95.9297 154.613 96.0742C154.469 96.2148 154.297 96.2891 154.094 96.2891C153.891 96.2891 153.715 96.2148 153.57 96.0742C153.43 95.9297 153.355 95.7539 153.355 95.5508C153.355 95.3477 153.43 95.1758 153.57 95.0312C153.715 94.8906 153.891 94.8164 154.094 94.8164C154.297 94.8164 154.469 94.8906 154.613 95.0312C154.754 95.1758 154.828 95.3477 154.828 95.5508Z" fill="#707070"/>
<path d="M151.453 95.6406C151.453 95.8438 151.383 96.0156 151.238 96.1602C151.094 96.3047 150.922 96.375 150.719 96.375C150.516 96.375 150.34 96.3047 150.195 96.1602C150.055 96.0156 149.98 95.8438 149.98 95.6406C149.98 95.4375 150.055 95.2617 150.195 95.1172C150.34 94.9766 150.516 94.9023 150.719 94.9023C150.922 94.9023 151.094 94.9766 151.238 95.1172C151.383 95.2617 151.453 95.4375 151.453 95.6406Z" fill="#707070"/>
<path d="M149.766 97.3711C149.766 97.5742 149.695 97.7461 149.551 97.8906C149.406 98.0352 149.234 98.1055 149.031 98.1055C148.828 98.1055 148.652 98.0352 148.508 97.8906C148.367 97.7461 148.293 97.5742 148.293 97.3711C148.293 97.168 148.367 96.9922 148.508 96.8516C148.652 96.707 148.828 96.6328 149.031 96.6328C149.234 96.6328 149.406 96.707 149.551 96.8516C149.695 96.9922 149.766 97.168 149.766 97.3711Z" fill="#707070"/>
<path d="M147.258 106.715C147.258 106.918 147.184 107.094 147.039 107.234C146.898 107.379 146.723 107.449 146.52 107.449C146.316 107.449 146.145 107.379 146 107.234C145.855 107.094 145.785 106.918 145.785 106.715C145.785 106.512 145.855 106.34 146 106.195C146.145 106.051 146.316 105.98 146.52 105.98C146.723 105.98 146.898 106.051 147.039 106.195C147.184 106.34 147.258 106.512 147.258 106.715Z" fill="#707070"/>
<path d="M150.629 103.254C150.629 103.457 150.559 103.629 150.414 103.773C150.273 103.918 150.098 103.988 149.895 103.988C149.691 103.988 149.52 103.918 149.375 103.773C149.23 103.629 149.16 103.457 149.16 103.254C149.16 103.051 149.23 102.879 149.375 102.734C149.52 102.59 149.691 102.52 149.895 102.52C150.098 102.52 150.273 102.59 150.414 102.734C150.559 102.879 150.629 103.051 150.629 103.254Z" fill="#707070"/>
<path d="M145.57 108.445C145.57 108.648 145.496 108.824 145.352 108.965C145.211 109.109 145.035 109.18 144.832 109.18C144.629 109.18 144.457 109.109 144.312 108.965C144.168 108.824 144.098 108.648 144.098 108.445C144.098 108.242 144.168 108.07 144.312 107.926C144.457 107.781 144.629 107.711 144.832 107.711C145.035 107.711 145.211 107.781 145.352 107.926C145.496 108.07 145.57 108.242 145.57 108.445Z" fill="#707070"/>
<path d="M148.941 104.984C148.941 105.188 148.871 105.359 148.727 105.504C148.586 105.648 148.41 105.719 148.207 105.719C148.004 105.719 147.832 105.648 147.688 105.504C147.543 105.359 147.473 105.188 147.473 104.984C147.473 104.781 147.543 104.609 147.688 104.465C147.832 104.32 148.004 104.25 148.207 104.25C148.41 104.25 148.586 104.32 148.727 104.465C148.871 104.609 148.941 104.781 148.941 104.984Z" fill="#707070"/>
<path d="M154.004 99.793C154.004 99.9961 153.934 100.168 153.789 100.312C153.645 100.457 153.473 100.527 153.27 100.527C153.066 100.527 152.895 100.457 152.75 100.312C152.605 100.168 152.535 99.9961 152.535 99.793C152.535 99.5898 152.605 99.418 152.75 99.2734C152.895 99.1289 153.066 99.0586 153.27 99.0586C153.473 99.0586 153.645 99.1289 153.789 99.2734C153.934 99.418 154.004 99.5898 154.004 99.793Z" fill="#707070"/>
<path d="M157.379 96.332C157.379 96.5352 157.309 96.707 157.164 96.8516C157.02 96.9961 156.848 97.0664 156.645 97.0664C156.441 97.0664 156.27 96.9961 156.125 96.8516C155.98 96.707 155.91 96.5352 155.91 96.332C155.91 96.1289 155.98 95.9531 156.125 95.8125C156.27 95.668 156.441 95.5977 156.645 95.5977C156.848 95.5977 157.02 95.668 157.164 95.8125C157.309 95.9531 157.379 96.1289 157.379 96.332Z" fill="#707070"/>
<path d="M152.316 101.523C152.316 101.727 152.246 101.898 152.102 102.043C151.961 102.187 151.785 102.258 151.582 102.258C151.379 102.258 151.207 102.187 151.062 102.043C150.918 101.898 150.848 101.727 150.848 101.523C150.848 101.32 150.918 101.148 151.062 101.004C151.207 100.859 151.379 100.789 151.582 100.789C151.785 100.789 151.961 100.859 152.102 101.004C152.246 101.148 152.316 101.32 152.316 101.523Z" fill="#707070"/>
<path d="M155.691 98.0625C155.691 98.2656 155.621 98.4375 155.477 98.582C155.332 98.7266 155.16 98.7969 154.957 98.7969C154.754 98.7969 154.582 98.7266 154.438 98.582C154.293 98.4375 154.223 98.2656 154.223 98.0625C154.223 97.8594 154.293 97.6875 154.438 97.543C154.582 97.3984 154.754 97.3281 154.957 97.3281C155.16 97.3281 155.332 97.3984 155.477 97.543C155.621 97.6875 155.691 97.8594 155.691 98.0625Z" fill="#707070"/>
<path d="M148.555 113.031C148.555 113.234 148.48 113.41 148.34 113.551C148.195 113.695 148.023 113.77 147.82 113.77C147.617 113.77 147.441 113.695 147.297 113.551C147.156 113.41 147.082 113.234 147.082 113.031C147.082 112.828 147.156 112.656 147.297 112.512C147.441 112.367 147.617 112.297 147.82 112.297C148.023 112.297 148.195 112.367 148.34 112.512C148.48 112.656 148.555 112.828 148.555 113.031Z" fill="#707070"/>
<path d="M151.93 109.57C151.93 109.773 151.855 109.949 151.715 110.09C151.57 110.234 151.395 110.305 151.191 110.305C150.988 110.305 150.816 110.234 150.672 110.09C150.531 109.949 150.457 109.773 150.457 109.57C150.457 109.367 150.531 109.195 150.672 109.051C150.816 108.906 150.988 108.836 151.191 108.836C151.395 108.836 151.57 108.906 151.715 109.051C151.855 109.195 151.93 109.367 151.93 109.57Z" fill="#707070"/>
<path d="M155.305 106.109C155.305 106.312 155.23 106.484 155.09 106.629C154.945 106.773 154.77 106.844 154.566 106.844C154.363 106.844 154.191 106.773 154.047 106.629C153.902 106.484 153.832 106.312 153.832 106.109C153.832 105.906 153.902 105.734 154.047 105.59C154.191 105.445 154.363 105.375 154.566 105.375C154.77 105.375 154.945 105.445 155.09 105.59C155.23 105.734 155.305 105.906 155.305 106.109Z" fill="#707070"/>
<path d="M150.199 111.301C150.199 111.504 150.125 111.68 149.984 111.82C149.84 111.965 149.664 112.039 149.461 112.039C149.258 112.039 149.086 111.965 148.941 111.82C148.797 111.68 148.727 111.504 148.727 111.301C148.727 111.098 148.797 110.926 148.941 110.781C149.086 110.637 149.258 110.566 149.461 110.566C149.664 110.566 149.84 110.637 149.984 110.781C150.125 110.926 150.199 111.098 150.199 111.301Z" fill="#707070"/>
<path d="M153.574 107.84C153.574 108.043 153.5 108.215 153.355 108.359C153.215 108.504 153.039 108.574 152.836 108.574C152.633 108.574 152.461 108.504 152.316 108.359C152.172 108.215 152.102 108.043 152.102 107.84C152.102 107.637 152.172 107.465 152.316 107.32C152.461 107.176 152.633 107.105 152.836 107.105C153.039 107.105 153.215 107.176 153.355 107.32C153.5 107.465 153.574 107.637 153.574 107.84Z" fill="#707070"/>
<path d="M158.637 102.648C158.637 102.852 158.562 103.023 158.418 103.168C158.277 103.312 158.102 103.383 157.898 103.383C157.695 103.383 157.523 103.312 157.379 103.168C157.234 103.023 157.164 102.852 157.164 102.648C157.164 102.445 157.234 102.273 157.379 102.129C157.523 101.984 157.695 101.914 157.898 101.914C158.102 101.914 158.277 101.984 158.418 102.129C158.562 102.273 158.637 102.445 158.637 102.648Z" fill="#707070"/>
<path d="M162.012 99.1875C162.012 99.3906 161.937 99.5625 161.793 99.707C161.652 99.8516 161.477 99.9219 161.273 99.9219C161.07 99.9219 160.898 99.8516 160.754 99.707C160.609 99.5625 160.539 99.3906 160.539 99.1875C160.539 98.9844 160.609 98.8125 160.754 98.668C160.898 98.5234 161.07 98.4531 161.273 98.4531C161.477 98.4531 161.652 98.5234 161.793 98.668C161.937 98.8125 162.012 98.9844 162.012 99.1875Z" fill="#707070"/>
<path d="M156.949 104.379C156.949 104.582 156.875 104.754 156.73 104.898C156.59 105.043 156.414 105.113 156.211 105.113C156.008 105.113 155.836 105.043 155.691 104.898C155.547 104.754 155.477 104.582 155.477 104.379C155.477 104.176 155.547 104.004 155.691 103.859C155.836 103.715 156.008 103.645 156.211 103.645C156.414 103.645 156.59 103.715 156.73 103.859C156.875 104.004 156.949 104.176 156.949 104.379Z" fill="#707070"/>
<path d="M160.324 100.918C160.324 101.121 160.25 101.293 160.105 101.438C159.965 101.582 159.789 101.652 159.586 101.652C159.383 101.652 159.211 101.582 159.066 101.438C158.922 101.293 158.852 101.121 158.852 100.918C158.852 100.715 158.922 100.543 159.066 100.398C159.211 100.254 159.383 100.184 159.586 100.184C159.789 100.184 159.965 100.254 160.105 100.398C160.25 100.543 160.324 100.715 160.324 100.918Z" fill="#707070"/>
<path d="M152.793 112.125C152.793 112.328 152.723 112.5 152.578 112.645C152.434 112.789 152.262 112.859 152.059 112.859C151.855 112.859 151.684 112.789 151.539 112.645C151.395 112.5 151.324 112.328 151.324 112.125C151.324 111.922 151.395 111.746 151.539 111.605C151.684 111.461 151.855 111.387 152.059 111.387C152.262 111.387 152.434 111.461 152.578 111.605C152.723 111.746 152.793 111.922 152.793 112.125Z" fill="#707070"/>
<path d="M156.168 108.617C156.168 108.82 156.098 108.996 155.953 109.141C155.809 109.281 155.637 109.355 155.434 109.355C155.23 109.355 155.059 109.281 154.914 109.141C154.77 108.996 154.699 108.82 154.699 108.617C154.699 108.414 154.77 108.242 154.914 108.098C155.059 107.957 155.23 107.883 155.434 107.883C155.637 107.883 155.809 107.957 155.953 108.098C156.098 108.242 156.168 108.414 156.168 108.617Z" fill="#707070"/>
<path d="M151.105 113.855C151.105 114.059 151.035 114.23 150.891 114.375C150.746 114.52 150.574 114.59 150.371 114.59C150.168 114.59 149.996 114.52 149.852 114.375C149.707 114.23 149.637 114.059 149.637 113.855C149.637 113.652 149.707 113.477 149.852 113.336C149.996 113.191 150.168 113.117 150.371 113.117C150.574 113.117 150.746 113.191 150.891 113.336C151.035 113.477 151.105 113.652 151.105 113.855Z" fill="#707070"/>
<path d="M154.48 110.395C154.48 110.598 154.41 110.77 154.266 110.914C154.121 111.059 153.949 111.129 153.746 111.129C153.543 111.129 153.371 111.059 153.227 110.914C153.082 110.77 153.012 110.598 153.012 110.395C153.012 110.191 153.082 110.016 153.227 109.871C153.371 109.73 153.543 109.656 153.746 109.656C153.949 109.656 154.121 109.73 154.266 109.871C154.41 110.016 154.48 110.191 154.48 110.395Z" fill="#707070"/>
<path d="M159.543 105.156C159.543 105.359 159.473 105.535 159.328 105.68C159.184 105.82 159.012 105.895 158.809 105.895C158.605 105.895 158.43 105.82 158.289 105.68C158.145 105.535 158.074 105.359 158.074 105.156C158.074 104.953 158.145 104.781 158.289 104.637C158.43 104.492 158.605 104.422 158.809 104.422C159.012 104.422 159.184 104.492 159.328 104.637C159.473 104.781 159.543 104.953 159.543 105.156Z" fill="#707070"/>
<path d="M162.918 101.695C162.918 101.898 162.848 102.074 162.703 102.215C162.559 102.359 162.387 102.434 162.184 102.434C161.98 102.434 161.805 102.359 161.664 102.215C161.52 102.074 161.449 101.898 161.449 101.695C161.449 101.492 161.52 101.32 161.664 101.176C161.805 101.031 161.98 100.961 162.184 100.961C162.387 100.961 162.559 101.031 162.703 101.176C162.848 101.32 162.918 101.492 162.918 101.695Z" fill="#707070"/>
<path d="M157.641 106.414C157.941 106.672 157.941 107.148 157.641 107.449C157.379 107.754 156.906 107.754 156.602 107.449C156.297 107.191 156.297 106.715 156.602 106.414C156.859 106.109 157.336 106.109 157.641 106.414Z" fill="#707070"/>
<path d="M161.23 103.469C161.23 103.672 161.16 103.848 161.016 103.992C160.871 104.133 160.699 104.207 160.496 104.207C160.293 104.207 160.117 104.133 159.977 103.992C159.832 103.848 159.762 103.672 159.762 103.469C159.762 103.266 159.832 103.094 159.977 102.949C160.117 102.809 160.293 102.734 160.496 102.734C160.699 102.734 160.871 102.809 161.016 102.949C161.16 103.094 161.23 103.266 161.23 103.469Z" fill="#707070"/>
<path d="M155.219 112.816C155.219 113.02 155.145 113.191 155 113.336C154.859 113.48 154.684 113.551 154.48 113.551C154.277 113.551 154.105 113.48 153.961 113.336C153.816 113.191 153.746 113.02 153.746 112.816C153.746 112.613 153.816 112.438 153.961 112.297C154.105 112.152 154.277 112.082 154.48 112.082C154.684 112.082 154.859 112.152 155 112.297C155.145 112.438 155.219 112.613 155.219 112.816Z" fill="#707070"/>
<path d="M158.59 109.355C158.59 109.559 158.52 109.73 158.375 109.875C158.234 110.02 158.059 110.09 157.855 110.09C157.652 110.09 157.48 110.02 157.336 109.875C157.191 109.73 157.121 109.559 157.121 109.355C157.121 109.152 157.191 108.977 157.336 108.836C157.48 108.691 157.652 108.617 157.855 108.617C158.059 108.617 158.234 108.691 158.375 108.836C158.52 108.977 158.59 109.152 158.59 109.355Z" fill="#707070"/>
<path d="M153.531 114.547C153.531 114.75 153.457 114.922 153.312 115.066C153.172 115.211 152.996 115.281 152.793 115.281C152.59 115.281 152.418 115.211 152.273 115.066C152.129 114.922 152.059 114.75 152.059 114.547C152.059 114.344 152.129 114.172 152.273 114.027C152.418 113.883 152.59 113.812 152.793 113.812C152.996 113.812 153.172 113.883 153.312 114.027C153.457 114.172 153.531 114.344 153.531 114.547Z" fill="#707070"/>
<path d="M156.906 111.086C156.906 111.289 156.832 111.461 156.688 111.605C156.547 111.75 156.371 111.82 156.168 111.82C155.965 111.82 155.793 111.75 155.648 111.605C155.504 111.461 155.434 111.289 155.434 111.086C155.434 110.883 155.504 110.707 155.648 110.566C155.793 110.422 155.965 110.352 156.168 110.352C156.371 110.352 156.547 110.422 156.688 110.566C156.832 110.707 156.906 110.883 156.906 111.086Z" fill="#707070"/>
<path d="M161.965 105.895C161.965 106.098 161.895 106.27 161.75 106.414C161.609 106.559 161.434 106.629 161.23 106.629C161.027 106.629 160.855 106.559 160.711 106.414C160.566 106.27 160.496 106.098 160.496 105.895C160.496 105.691 160.566 105.516 160.711 105.375C160.855 105.23 161.027 105.156 161.23 105.156C161.434 105.156 161.609 105.23 161.75 105.375C161.895 105.516 161.965 105.691 161.965 105.895Z" fill="#707070"/>
<path d="M160.063 107.106C160.367 107.363 160.367 107.84 160.063 108.145C159.805 108.445 159.328 108.445 159.023 108.145C158.723 107.883 158.723 107.406 159.023 107.106C159.285 106.844 159.762 106.801 160.063 107.106Z" fill="#707070"/>
<path d="M163.652 104.164C163.652 104.367 163.582 104.539 163.438 104.684C163.293 104.828 163.121 104.898 162.918 104.898C162.715 104.898 162.543 104.828 162.398 104.684C162.254 104.539 162.184 104.367 162.184 104.164C162.184 103.961 162.254 103.785 162.398 103.641C162.543 103.5 162.715 103.426 162.918 103.426C163.121 103.426 163.293 103.5 163.438 103.641C163.582 103.785 163.652 103.961 163.652 104.164Z" fill="#707070"/>
<path d="M164.867 104.074C163.395 105.98 161.402 108.402 158.98 110.914C156.773 113.207 154.609 115.066 152.879 116.492C154.094 116.711 155.262 116.754 156.387 116.625C157.727 115.457 159.152 114.113 160.668 112.555C162.355 110.824 163.828 109.137 165.082 107.582C165.211 106.457 165.125 105.289 164.867 104.074Z" fill="#ADADAC"/>
<path d="M160.797 96.8086C160.582 96.5469 160.324 96.332 160.062 96.0703C159.762 95.7695 159.414 95.4648 159.066 95.207C157.641 97.2383 155.129 100.527 151.801 103.945C148.684 107.148 145.742 109.527 143.793 111C144.055 111.301 144.355 111.605 144.66 111.906C144.918 112.168 145.18 112.426 145.48 112.645C147.473 111.129 150.371 108.75 153.484 105.547C156.773 102.129 159.285 98.8828 160.797 96.8086Z" fill="#ADADAC"/>
<path d="M165.082 106.281C165.082 106.281 163.871 108.922 160.754 112.168C157.598 115.41 155 116.668 155 116.668L192.035 148.684C192.512 149.117 194.242 148.121 195.93 146.391C197.574 144.66 198.57 142.93 198.094 142.453L165.082 106.281Z" fill="#3A3A38"/>
<path d="M160.754 112.168C157.598 115.41 155 116.668 155 116.668L192.035 148.684C192.512 149.117 194.242 148.121 195.93 146.391L160.754 112.168Z" fill="#545454"/>
<path d="M167.766 117.012C167.766 117.277 167.715 117.531 167.613 117.773C167.512 118.02 167.367 118.234 167.18 118.422C166.996 118.605 166.781 118.75 166.535 118.852C166.293 118.953 166.039 119.004 165.773 119.004C165.512 119.004 165.258 118.953 165.012 118.852C164.77 118.75 164.555 118.605 164.367 118.422C164.18 118.234 164.035 118.02 163.934 117.773C163.836 117.531 163.785 117.277 163.785 117.012C163.785 116.75 163.836 116.496 163.934 116.25C164.035 116.008 164.18 115.793 164.367 115.605C164.555 115.418 164.77 115.273 165.012 115.176C165.258 115.074 165.512 115.023 165.773 115.023C166.039 115.023 166.293 115.074 166.535 115.176C166.781 115.273 166.996 115.418 167.18 115.605C167.367 115.793 167.512 116.008 167.613 116.25C167.715 116.496 167.766 116.75 167.766 117.012Z" fill="#3A3A38"/>
<path d="M167.07 117.012C167.07 117.184 167.039 117.352 166.973 117.508C166.906 117.668 166.813 117.809 166.691 117.93C166.57 118.051 166.43 118.145 166.27 118.211C166.113 118.277 165.945 118.312 165.773 118.312C165.602 118.312 165.437 118.277 165.277 118.211C165.117 118.145 164.977 118.051 164.855 117.93C164.734 117.809 164.641 117.668 164.574 117.508C164.508 117.352 164.477 117.184 164.477 117.012C164.477 116.84 164.508 116.676 164.574 116.516C164.641 116.355 164.734 116.215 164.855 116.094C164.977 115.973 165.117 115.879 165.277 115.812C165.437 115.746 165.602 115.715 165.773 115.715C165.945 115.715 166.113 115.746 166.27 115.812C166.43 115.879 166.57 115.973 166.691 116.094C166.813 116.215 166.906 116.355 166.973 116.516C167.039 116.676 167.07 116.84 167.07 117.012Z" fill="#727270"/>
<path d="M66.0898 130.426C69.7227 127.008 71.9727 114.375 71.9727 114.375C64.0977 103.559 54.2773 94.3398 53.9297 73.832C53.6289 53.3242 76.8164 44.3672 76.8164 44.3672C96.7656 35.8437 112.859 51.2031 112.859 51.2031C115.367 54.4062 117.66 59.9023 119.262 64.5312C119.781 65.957 119.652 67.8203 119.867 68.3398C120.344 69.5078 121.73 72.4492 121.73 72.4492C124.672 78.0312 130.254 80.625 130.254 80.625C136.137 83.2656 131.723 87.8515 131.723 87.8515C131.117 88.8906 131.332 89.6679 131.422 91.3554C131.465 93 126.141 94.039 126.098 95.3789C126.012 96.7656 131.246 99.8359 131.246 101.09C131.246 102.344 130.297 103.816 130.297 103.816C130.945 114.937 119.176 114.937 119.176 114.937C107.926 114.805 102.434 120.863 100.57 122.766C93.9531 129.648 89.7109 146.996 89.7109 146.996C89.7109 146.996 81.2734 144.832 76.082 141.113C70.8047 137.562 66.0898 130.426 66.0898 130.426Z" fill="#DFA17C"/>
<path d="M88.5859 97.8477C88.5859 97.8477 87.8515 105.852 93.7773 109.918C97.8008 112.687 106.758 113.074 106.758 113.074C106.758 113.074 99.9648 111.777 94.7305 108.359C90.9219 105.895 89.1914 102.172 88.5859 97.8477Z" fill="#C98D6F"/>
<path d="M117.488 66.1329C117.488 66.1329 110.48 65.5274 107.363 66.4337C106.109 66.7813 103.773 70.0704 103.773 70.0704C103.773 70.0704 107.02 69.3321 108.23 68.9454C109.441 68.5548 117.703 67.9493 117.703 67.9493C117.703 67.9493 118.785 66.5626 117.488 66.1329Z" fill="#3A3A38"/>
<path d="M118.398 71.8438C118.398 71.8438 117.965 73.7461 116.32 74.957C114.59 76.3008 111.52 76.9063 108.23 74.3516C108.23 74.3516 112.773 73.9609 115.023 73.4883C117.23 72.9688 118.398 71.8438 118.398 71.8438Z" fill="#644B44"/>
<path d="M119.695 60.8945C116.492 61.3711 101.395 63.5351 94.9023 67.2148C91.6172 69.0742 88.0664 75.4336 84.6055 80.625C84.1719 81.2304 85.7734 85.6015 85.3867 86.25C85.0391 86.8125 82.2266 84.8242 82.2266 84.8242C78.5039 91.1836 75.8672 97.457 75.7813 101.957C75.6484 111.129 71.582 115.457 71.582 115.457C71.582 115.457 34.1992 77.6836 62.582 51.9843C71.7148 43.7187 101.09 29.1406 119.48 57.3476C119.824 57.9101 120.516 60.7656 119.695 60.8945Z" fill="#3A3A38"/>
<path d="M54.0586 51.2461C54.0586 51.2461 60.3789 56.3984 69.6797 55.4883C69.6797 55.5313 60.5937 64.6602 54.0586 51.2461Z" fill="#3A3A38"/>
<path d="M52.0703 56.6563C52.0703 56.6563 59.2969 58.3868 66.8242 54.5782C74.3516 50.7735 64.0547 65.6134 52.0703 56.6563Z" fill="#3A3A38"/>
<path d="M63.8398 45.2344C63.8398 45.2344 61.1992 53.2812 65.1797 61.3281C69.1602 69.375 54.5352 55.4883 63.8398 45.2344Z" fill="#3A3A38"/>
<path d="M82.7422 86.2618C82.9102 86.7383 83.0352 87.2188 83.125 87.711C83.2149 88.2032 83.2656 88.6915 83.2735 89.1797C83.2852 89.6719 83.2539 90.1485 83.1797 90.6172C83.1094 91.086 83 91.5352 82.8477 91.9649C82.6992 92.3946 82.5156 92.793 82.293 93.168C82.0703 93.543 81.8164 93.8829 81.5313 94.1837C81.2461 94.4883 80.9336 94.754 80.5938 94.9766C80.2578 95.1993 79.8985 95.3751 79.5195 95.5079C79.1445 95.6407 78.7539 95.7266 78.3477 95.7618C77.9453 95.8008 77.5391 95.7891 77.125 95.7305C76.711 95.6719 76.3008 95.5665 75.8945 95.4102C75.4883 95.2579 75.0938 95.0626 74.707 94.8204C74.3242 94.5782 73.957 94.2969 73.6094 93.9766C73.2617 93.6563 72.9375 93.3008 72.6367 92.9141C72.3399 92.5235 72.0703 92.1133 71.836 91.6719C71.5977 91.2344 71.3945 90.7774 71.2305 90.3008C71.0625 89.8282 70.9336 89.3438 70.8477 88.8516C70.7578 88.3594 70.707 87.8712 70.6992 87.3829C70.6875 86.8946 70.7188 86.4141 70.793 85.9454C70.8633 85.4766 70.9727 85.0274 71.125 84.6016C71.2735 84.1719 71.457 83.7696 71.6797 83.3946C71.9024 83.0196 72.1563 82.6837 72.4414 82.379C72.7266 82.0743 73.0391 81.8126 73.3789 81.5899C73.7149 81.3672 74.0742 81.1876 74.4531 81.0547C74.8281 80.9219 75.2188 80.8399 75.625 80.8008C76.0274 80.7618 76.4336 80.7735 76.8477 80.8321C77.2617 80.8907 77.6719 81.0001 78.0781 81.1524C78.4844 81.3047 78.8789 81.504 79.2656 81.7462C79.6485 81.9844 80.0156 82.2657 80.3633 82.5899C80.711 82.9102 81.0352 83.2618 81.336 83.6524C81.6328 84.0391 81.9024 84.4532 82.1367 84.8907C82.375 85.3321 82.5781 85.7891 82.7422 86.2618Z" fill="#DFA17C"/>
<path d="M155.824 149.852C155.824 149.852 173.648 149.418 176.246 160.539C178.84 171.656 161.23 168.238 155.824 149.852Z" fill="#15252D"/>
<path d="M188.055 130.641C188.055 130.641 192.297 124.023 190.219 123.027C188.145 122.031 187.84 122.551 186.367 124.453C184.898 126.359 188.574 120.949 186.672 119.652C185.547 118.875 184.336 117.617 181.438 121.816C181.438 121.816 184.812 118.137 182.344 116.406C180.184 114.848 179.273 115.367 177.934 117.359C177.934 117.359 179.574 115.109 177.758 113.855C175.121 112.039 173.691 113.813 172.09 116.277C168.371 122.031 165.254 124.973 165.773 128.781C165.773 128.781 164.305 138.949 158.98 153.574C158.98 153.574 153.918 172.523 172.219 161.879C172.219 161.879 176.199 153.918 178.406 151.148C183.469 144.875 186.629 136.785 188.055 130.641Z" fill="#DFA17C"/>
<path d="M173.953 122.898L178.234 116.926L174.211 123.027L173.953 122.898Z" fill="#C48769"/>
<path d="M178.363 125.883L182.477 120.516L178.668 126.012L178.363 125.883Z" fill="#C48769"/>
<path d="M182.992 128.996L186.629 124.152L183.297 129.172L182.992 128.996Z" fill="#C48769"/>
<path d="M82.4414 212.414C90.1016 214.32 98.1055 215.355 106.281 215.531L90.707 197.359C90.707 197.316 85.9023 206.269 82.4414 212.414Z" fill="#22A85B"/>
<path d="M155.824 149.852L121.555 192.988L95.5508 149.68C88.2852 132.848 60.6797 127.914 60.6797 127.914C52.1133 127.57 31.5195 155.129 20.9609 170.707C35.6289 191.129 57.3047 206.184 82.4414 212.414C85.9023 206.27 90.707 197.316 90.707 197.316L106.281 215.488C106.934 215.488 107.539 215.531 108.188 215.531C119.133 215.531 129.648 213.887 139.598 210.859L176.246 160.539C166.598 163.828 155.824 149.852 155.824 149.852Z" fill="#334D5C"/>
</svg>
