<?xml version="1.0" encoding="UTF-8"?>
<svg xmlns="http://www.w3.org/2000/svg" xmlns:xlink="http://www.w3.org/1999/xlink" width="300pt" height="299.999988pt" viewBox="0 0 300 299.999988" version="1.2">
<defs>
<clipPath id="clip1">
  <path d="M 37.894531 37.894531 L 262.144531 37.894531 L 262.144531 262.144531 L 37.894531 262.144531 Z M 37.894531 37.894531 "/>
</clipPath>
</defs>
<g id="surface1">
<g clip-path="url(#clip1)" clip-rule="nonzero">
<path style=" stroke:none;fill-rule:nonzero;fill:rgb(19.60907%,74.508667%,65.098572%);fill-opacity:1;" d="M 262.191406 150.042969 C 262.191406 88.117188 211.972656 37.894531 150.042969 37.894531 C 88.117188 37.894531 37.894531 88.117188 37.894531 150.042969 C 37.894531 211.972656 88.117188 262.191406 150.042969 262.191406 C 211.972656 262.191406 262.191406 211.972656 262.191406 150.042969 Z M 262.191406 150.042969 "/>
</g>
<path style=" stroke:none;fill-rule:nonzero;fill:rgb(22.749329%,22.749329%,21.958923%);fill-opacity:1;" d="M 193.753906 132.730469 C 192.714844 128.664062 190.636719 124.730469 187.789062 121.296875 C 185.078125 117.996094 181.914062 115.375 178.929688 112.976562 L 178.207031 112.390625 C 176.941406 111.394531 175.765625 110.445312 174.679688 109.453125 C 173.503906 108.414062 172.238281 107.191406 170.972656 105.789062 C 168.714844 103.304688 166.542969 100.457031 164.554688 97.382812 C 163.605469 95.890625 162.703125 94.355469 161.84375 92.773438 C 161.4375 92.003906 161.027344 91.191406 160.621094 90.421875 C 160.167969 89.519531 159.851562 88.75 159.582031 88.160156 L 159.582031 88.117188 C 159.535156 88.027344 159.492188 87.9375 159.492188 87.890625 C 158.585938 85.992188 156.597656 84.863281 154.519531 85.042969 C 153.886719 85.085938 153.300781 85.269531 152.757812 85.539062 C 151.535156 86.128906 150.632812 87.121094 150.179688 88.433594 C 150.042969 88.792969 149.953125 89.203125 149.910156 89.609375 C 149.820312 90.015625 149.726562 90.421875 149.773438 90.875 L 156.28125 171.246094 C 149.636719 167.3125 139.964844 166.679688 130.605469 170.296875 C 116.503906 175.808594 108.457031 188.875 112.617188 199.542969 C 116.773438 210.210938 131.554688 214.414062 145.660156 208.898438 C 157.59375 204.242188 165.234375 194.117188 164.734375 184.625 L 158.316406 104.839844 C 160.351562 107.417969 162.429688 109.8125 164.644531 111.984375 C 166.226562 113.519531 167.765625 114.875 169.253906 116.050781 C 170.566406 117.089844 171.921875 118.039062 173.1875 118.945312 L 174.003906 119.53125 C 176.804688 121.519531 179.742188 123.691406 182.136719 126.3125 C 184.488281 128.800781 186.160156 131.601562 187.109375 134.675781 C 188.058594 137.613281 188.421875 141.003906 188.242188 144.710938 C 188.058594 147.964844 187.472656 151.402344 186.433594 155.289062 C 185.527344 158.585938 184.398438 162.023438 182.863281 165.773438 C 182.363281 167.039062 182.953125 168.488281 184.21875 169.03125 C 184.625 169.210938 185.03125 169.253906 185.4375 169.210938 C 186.296875 169.121094 187.109375 168.621094 187.519531 167.765625 C 189.324219 163.921875 190.726562 160.394531 191.902344 156.914062 C 193.257812 152.710938 194.164062 148.871094 194.570312 145.207031 C 194.976562 140.734375 194.75 136.527344 193.753906 132.730469 "/>
</g>
</svg>
